<svg aria-hidden="true" style="position:absolute;width:0;height:0;overflow:hidden" xmlns="http://www.w3.org/2000/svg">
  <defs>
    <symbol id="icon-arrow-r" viewBox="0 0 32 32">
      <path stroke-linejoin="round" stroke-linecap="round" stroke-width="2.667" d="M18.667 22.667 25.334 16l-6.667-6.667M25.333 16H6.666"/>
    </symbol>
    <symbol id="icon-attachment" viewBox="0 0 32 32">
      <path d="m28.1 18.9-15-15c-2.5-2.6-6.6-2.6-9.2-.1s-2.6 6.7 0 9.2l.1.1L6.8 16l1.4-1.4-2.9-2.9c-1.7-1.7-1.7-4.6 0-6.3s4.6-1.8 6.3-.1l15 15c1.8 1.7 1.8 4.6.1 6.3-1.7 1.8-4.6 1.8-6.3.1l-7.5-7.5c-1-1-.9-2.6 0-3.5a2.607 2.607 0 0 1 3.5 0l4.1 4.1 1.4-1.4-4.2-4.2a4.436 4.436 0 0 0-4.887-.817A4.435 4.435 0 0 0 11.4 14.4c-1.6 1.7-1.6 4.4 0 6.2l7.5 7.5c2.5 2.6 6.6 2.6 9.2.1s2.6-6.7 0-9.3c0 .1 0 0 0 0z"/>
    </symbol>
    <symbol id="icon-check" viewBox="0 0 32 32">
      <path d="m15 21.76-5.4-6.081 1.8-2.026 3.601 4.052L22.2 9.6l1.801 2.027-9 10.133z"/>
      <path d="M0 16c0 8.836 7.164 16 16 16s16-7.164 16-16S24.836 0 16 0 0 7.164 0 16zm16 13.091c-1.719 0-3.421-.339-5.01-.996s-3.031-1.622-4.247-2.838A13.094 13.094 0 0 1 3.905 10.99a13.084 13.084 0 0 1 7.085-7.085A13.09 13.09 0 1 1 16 29.09z"/>
    </symbol>
    <symbol id="icon-chevron-r" viewBox="0 0 32 32">
      <path stroke-linejoin="round" stroke-linecap="round" stroke-width="2.4" d="m12 8 8 8-8 8"/>
    </symbol>
    <symbol id="icon-error" viewBox="0 0 32 32">
      <path d="M16 29a13 13 0 1 1 0-25.998A13 13 0 0 1 16 29zm0 3a16.003 16.003 0 0 0 16-16A15.997 15.997 0 0 0 16 0 15.997 15.997 0 0 0 0 16a16.003 16.003 0 0 0 16 16zm2-10a2 2 0 1 1-4.001-.001A2 2 0 0 1 18 22zm-.5-12.5A1.503 1.503 0 0 0 16 8a1.503 1.503 0 0 0-1.5 1.5v7A1.503 1.503 0 0 0 16 18a1.503 1.503 0 0 0 1.5-1.5v-7z"/>
    </symbol>
    <symbol id="icon-eye-off" viewBox="0 0 32 32">
      <path stroke-linejoin="round" stroke-linecap="round" stroke-width="2.08" d="M23.92 23.92A13.43 13.43 0 0 1 16 26.667C6.667 26.667 1.333 16 1.333 16A24.605 24.605 0 0 1 8.08 8.08m5.12-2.427a12.161 12.161 0 0 1 2.8-.32C25.333 5.333 30.667 16 30.667 16a24.646 24.646 0 0 1-2.88 4.253m-8.96-1.426a4.003 4.003 0 0 1-5.755.102 3.994 3.994 0 0 1-.824-4.457c.219-.491.534-.932.927-1.298M1.333 1.333l29.333 29.333"/>
    </symbol>
    <symbol id="icon-eye" viewBox="0 0 32 32">
      <path stroke-linejoin="round" stroke-linecap="round" stroke-width="2.08" d="M1.333 16S6.666 5.333 16 5.333 30.667 16 30.667 16 25.334 26.667 16 26.667 1.333 16 1.333 16z"/>
      <path stroke-linejoin="round" stroke-linecap="round" stroke-width="2.08" d="M16 20a4 4 0 1 0 0-8 4 4 0 0 0 0 8z"/>
    </symbol>
    <symbol id="icon-hourglass" viewBox="0 0 32 32">
      <path stroke-linejoin="round" stroke-linecap="round" stroke-width="3.2" d="m16 16-5.697-4.748c-.846-.705-1.27-1.058-1.574-1.49a3.978 3.978 0 0 1-.591-1.263c-.137-.511-.137-1.061-.137-2.163V2.667M16 16l5.697-4.748c.847-.705 1.27-1.058 1.574-1.49.27-.383.47-.811.592-1.263C24 7.988 24 7.438 24 6.336V2.667M16 16l-5.697 4.748c-.846.705-1.27 1.058-1.574 1.491-.27.383-.47.81-.591 1.263-.137.51-.137 1.061-.137 2.163v3.669M16 16l5.697 4.748c.847.705 1.27 1.058 1.574 1.491.27.383.47.81.592 1.263.137.51.137 1.061.137 2.163v3.669M5.333 2.667h21.333M5.333 29.333h21.333"/>
    </symbol>
    <symbol id="icon-icon" viewBox="0 0 79 32">
      <path d="M0 20.706V0h24.264c3.299 0 6.512 1.051 9.173 3.001a11.704 11.704 0 0 1 3.693 4.503l2.807 6.034a40.83 40.83 0 0 1 4.055-7.536l.139-.204c.463-.679.992-1.31 1.58-1.884l1.196-1.168A8.113 8.113 0 0 1 49.626.991l.103-.04A13.854 13.854 0 0 1 54.776 0h24.283v20.706H0zM0 24.471h79.059V32H0v-7.529z"/>
    </symbol>
    <symbol id="icon-pie-chart" viewBox="0 0 32 32">
      <path fill="none" opacity=".4" stroke="#686868" style="stroke:var(--color1, #686868)" stroke-linejoin="round" stroke-linecap="round" stroke-width="3.2" d="M22.933 18.667c.369 0 .554 0 .704.082a.708.708 0 0 1 .293.324c.067.157.05.324.016.659a10.672 10.672 0 0 1-12.694 9.397 10.66 10.66 0 0 1-8.381-8.381 10.666 10.666 0 0 1 9.397-12.694c.334-.034.502-.05.659.016.13.055.257.17.324.293.082.15.082.334.082.704V17.6c0 .373 0 .56.073.703a.665.665 0 0 0 .291.291c.143.073.329.073.703.073h8.533z"/>
      <path fill="none" stroke="#686868" style="stroke:var(--color1, #686868)" stroke-linejoin="round" stroke-linecap="round" stroke-width="3.2" d="M18.667 3.733c0-.369 0-.554.082-.704a.713.713 0 0 1 .324-.293c.157-.067.324-.05.659-.016a10.665 10.665 0 0 1 9.548 9.549c.033.334.05.502-.016.659a.704.704 0 0 1-.293.324c-.15.082-.334.082-.704.082h-8.533c-.373 0-.56 0-.703-.073a.665.665 0 0 1-.291-.291c-.073-.143-.073-.329-.073-.703V3.734z"/>
    </symbol>
    <symbol id="icon-trash" viewBox="0 0 32 32">
      <path stroke-linejoin="round" stroke-linecap="round" stroke-width="2.286" d="M4 8h24M25.333 8v18.667a2.67 2.67 0 0 1-2.667 2.667H9.333a2.668 2.668 0 0 1-2.667-2.667V8m4.001 0V5.333a2.668 2.668 0 0 1 2.667-2.667h5.333a2.668 2.668 0 0 1 2.667 2.667V8M13.333 14.667v8M18.667 14.667v8"/>
    </symbol>
    <symbol id="icon-x1" viewBox="0 0 32 32">
      <path stroke-linejoin="round" stroke-linecap="round" stroke-miterlimit="4" stroke-width="2.9091" d="M24 8l-16 16"></path>
      <path stroke-linejoin="round" stroke-linecap="round" stroke-miterlimit="4" stroke-width="2.9091" d="M8 8l16 16"></path>
    </symbol>
    <symbol id="icon-burger1" viewBox="0 0 32 32">
      <path fill="none" stroke="#f9f9f9" style="stroke: var(--color1, #f9f9f9)" stroke-linejoin="round" stroke-linecap="round" stroke-miterlimit="4" stroke-width="2.2857" d="M4 16h24M4 8h24M12 24h16"></path>
    </symbol>
    <symbol id="icon-x" viewBox="0 0 32 32">
      <path fill="none" stroke="#f9f9f9" style="stroke: var(--color1, #f9f9f9)" stroke-linejoin="round" stroke-linecap="round" stroke-miterlimit="4" stroke-width="2.2857" d="M24 8l-16 16"></path>
      <path fill="none" stroke="#f9f9f9" style="stroke: var(--color1, #f9f9f9)" stroke-linejoin="round" stroke-linecap="round" stroke-miterlimit="4" stroke-width="2.2857" d="M8 8l16 16"></path>
    </symbol>
    <symbol id="icon-hourglass-01" viewBox="0 0 32 32">
<path fill="none" stroke="#686868" style="stroke: var(--color1, #686868)" stroke-linejoin="round" stroke-linecap="round" stroke-miterlimit="4" stroke-width="4" d="M16 16l-5.697-4.748c-0.846-0.705-1.27-1.058-1.574-1.49-0.27-0.383-0.47-0.811-0.591-1.263-0.137-0.511-0.137-1.061-0.137-2.163v-3.669M16 16l5.697-4.748c0.846-0.705 1.27-1.058 1.574-1.49 0.27-0.383 0.47-0.811 0.591-1.263 0.137-0.511 0.137-1.061 0.137-2.163v-3.669M16 16l-5.697 4.748c-0.846 0.705-1.27 1.058-1.574 1.49-0.27 0.383-0.47 0.811-0.591 1.263-0.137 0.51-0.137 1.061-0.137 2.163v3.669M16 16l5.697 4.748c0.846 0.705 1.27 1.058 1.574 1.49 0.27 0.383 0.47 0.811 0.591 1.263 0.137 0.51 0.137 1.061 0.137 2.163v3.669"></path>
<path fill="none" stroke="#686868" style="stroke: var(--color1, #686868)" stroke-linejoin="round" stroke-linecap="round" stroke-miterlimit="4" stroke-width="4" d="M5.334 2.667h21.333M5.334 29.333h21.333"></path>
</symbol>
<symbol id="icon-hourglass-02" viewBox="0 0 32 32">
<path stroke-linejoin="round" stroke-linecap="round" stroke-miterlimit="4" stroke-width="4" d="M16 16l-5.697-4.748c-0.846-0.705-1.27-1.058-1.574-1.49-0.27-0.383-0.47-0.811-0.591-1.263-0.137-0.511-0.137-1.061-0.137-2.163v-3.669M16 16l5.697-4.748c0.846-0.705 1.27-1.058 1.574-1.49 0.27-0.383 0.47-0.811 0.591-1.263 0.137-0.511 0.137-1.061 0.137-2.163v-3.669M16 16l-5.697 4.748c-0.846 0.705-1.27 1.058-1.574 1.49-0.27 0.383-0.47 0.811-0.591 1.263-0.137 0.51-0.137 1.061-0.137 2.163v3.669M16 16l5.697 4.748c0.846 0.705 1.27 1.058 1.574 1.49 0.27 0.383 0.47 0.811 0.591 1.263 0.137 0.51 0.137 1.061 0.137 2.163v3.669"></path>
<path stroke-linejoin="round" stroke-linecap="round" stroke-miterlimit="4" stroke-width="4" d="M5.334 2.667h21.333M5.334 29.333h21.333"></path>
</symbol>
<symbol id="icon-pie-chart-02" viewBox="0 0 32 32">
<path fill="none" opacity="0.8" stroke="#f9f9f9" style="stroke: var(--color2, #f9f9f9)" stroke-linejoin="round" stroke-linecap="round" stroke-miterlimit="4" stroke-width="4" d="M22.933 18.667c0.369 0 0.554 0 0.704 0.082 0.123 0.068 0.238 0.195 0.293 0.324 0.067 0.157 0.050 0.324 0.016 0.659-0.174 1.733-0.77 3.404-1.744 4.861-1.172 1.754-2.838 3.121-4.787 3.929s-4.094 1.019-6.163 0.607c-2.069-0.412-3.97-1.427-5.462-2.919s-2.508-3.392-2.919-5.462c-0.412-2.069-0.2-4.214 0.607-6.163s2.175-3.615 3.929-4.787c1.457-0.974 3.128-1.57 4.861-1.744 0.334-0.034 0.502-0.050 0.659 0.016 0.13 0.055 0.257 0.17 0.324 0.293 0.082 0.15 0.082 0.334 0.082 0.704v8.533c0 0.373 0 0.56 0.073 0.703 0.064 0.125 0.166 0.227 0.291 0.291 0.143 0.073 0.329 0.073 0.703 0.073h8.533z"></path>
<path fill="none" stroke="#f9f9f9" style="stroke: var(--color2, #f9f9f9)" stroke-linejoin="round" stroke-linecap="round" stroke-miterlimit="4" stroke-width="4" d="M18.666 3.733c0-0.369 0-0.554 0.082-0.704 0.068-0.123 0.195-0.238 0.324-0.293 0.157-0.067 0.324-0.050 0.659-0.016 2.438 0.245 4.73 1.323 6.477 3.071s2.826 4.040 3.071 6.478c0.034 0.334 0.050 0.502-0.016 0.659-0.055 0.13-0.17 0.257-0.293 0.324-0.15 0.082-0.334 0.082-0.704 0.082h-8.533c-0.373 0-0.56 0-0.703-0.073-0.125-0.064-0.227-0.166-0.291-0.291-0.073-0.143-0.073-0.329-0.073-0.703v-8.533z"></path>
</symbol>
<symbol id="icon-pie-chart-03" viewBox="0 0 32 32">
<path stroke-linejoin="round" stroke-linecap="round" stroke-miterlimit="4" stroke-width="4" d="M22.933 18.667c0.369 0 0.554 0 0.704 0.082 0.123 0.068 0.238 0.195 0.293 0.324 0.067 0.157 0.050 0.324 0.016 0.659-0.174 1.733-0.77 3.404-1.744 4.861-1.172 1.754-2.838 3.121-4.787 3.929s-4.094 1.019-6.163 0.607c-2.069-0.412-3.97-1.427-5.462-2.919s-2.508-3.392-2.919-5.462c-0.412-2.069-0.2-4.214 0.607-6.163s2.175-3.615 3.929-4.787c1.457-0.974 3.128-1.57 4.861-1.744 0.334-0.034 0.502-0.050 0.659 0.016 0.13 0.055 0.257 0.17 0.324 0.293 0.082 0.15 0.082 0.334 0.082 0.704v8.533c0 0.373 0 0.56 0.073 0.703 0.064 0.125 0.166 0.227 0.291 0.291 0.143 0.073 0.329 0.073 0.703 0.073h8.533z"></path>
<path stroke-linejoin="round" stroke-linecap="round" stroke-miterlimit="4" stroke-width="4" d="M18.666 3.733c0-0.369 0-0.554 0.082-0.704 0.068-0.123 0.195-0.238 0.324-0.293 0.157-0.067 0.324-0.050 0.659-0.016 2.438 0.245 4.73 1.323 6.477 3.071s2.826 4.040 3.071 6.478c0.034 0.334 0.050 0.502-0.016 0.659-0.055 0.13-0.17 0.257-0.293 0.324-0.15 0.082-0.334 0.082-0.704 0.082h-8.533c-0.373 0-0.56 0-0.703-0.073-0.125-0.064-0.227-0.166-0.291-0.291-0.073-0.143-0.073-0.329-0.073-0.703v-8.533z"></path>
</symbol>
  </defs>
</svg>
